<svg width="67" height="42" viewBox="0 0 67 42" fill="none" xmlns="http://www.w3.org/2000/svg">
    <path d="M56.3689 41.1668H66.9999L50.9403 19.4523L59.0832 8.1427H48.6784L29.6782 33.0238H41.4402L45.9641 26.2381L56.3689 41.1668Z" fill="#1C1F25"/>
    <path d="M34.4315 0.226192L24.9314 0L37.372 17.8692L41.8958 11.0834L34.4315 0.226192Z" fill="#1C1F25"/>
    <path d="M0.503906 33.4767H17.0807C22.0984 33.4767 24.1054 33.2529 25.9266 32.5441C30.0894 30.8655 32.1708 27.1352 32.1708 21.3532C32.1708 15.9816 30.3124 12.214 26.6328 10.1996C24.4399 9.00592 22.024 8.59558 16.932 8.59558H0.503906V33.4767ZM9.98168 27.1352V14.9371H14.4418C17.3781 14.9371 17.6754 14.9744 18.4931 15.1982C20.7975 15.7578 22.024 17.8467 22.024 21.0548C22.024 23.1811 21.5037 24.8597 20.5373 25.8296C19.6453 26.7249 17.7869 27.1352 14.5533 27.1352H9.98168Z" fill="#1C1F25"/>
</svg>
